<svg enable-background="new 0 0 557.2 291.6" height="291.6" viewBox="0 0 557.2 291.6" width="557.2" xmlns="http://www.w3.org/2000/svg"><path d="m0 0h557.2v291.6h-557.2z" fill="#9b1e34"/><g fill="#af9757"><path d="m311.2 249.6c0-2.3.4-4.4 1.3-6.5s2.2-3.9 3.9-5.5c1.6-1.6 3.4-2.7 5.4-3.5 1.9-.8 4.1-1.2 6.3-1.2 2.3 0 4.5.4 6.5 1.2s3.8 2 5.4 3.6c1.7 1.6 3 3.4 3.8 5.4s1.3 4.2 1.3 6.5-.4 4.4-1.1 6.4c-.7 1.9-1.8 3.7-3.3 5.3-1.7 1.8-3.6 3.2-5.7 4.1s-4.4 1.4-6.9 1.4c-4.8 0-8.8-1.6-12-4.9-3.2-3.4-4.9-7.4-4.9-12.3zm4.9.1c0 3.5 1.2 6.5 3.5 8.9s5.2 3.6 8.7 3.6c3.4 0 6.2-1.2 8.5-3.6s3.5-5.4 3.5-8.9c0-3.3-1.2-6.1-3.6-8.5s-5.3-3.6-8.6-3.6c-1.4 0-2.7.2-4 .7s-2.4 1.1-3.5 2c-1.4 1.2-2.5 2.6-3.3 4.3-.8 1.6-1.2 3.3-1.2 5.1z"/><path d="m375.3 240.5c0-7.2 7-7.3 7-7.3h11.9v4.8h-10.6c-3.6 0-3.3 4.7-3.3 4.7v4.6h10.4v4.7h-10.3v2.8 3.4c0 3.6 3 3.7 3 3.7h10.9v4.7h-11.8s-7.1 0-7.1-7.6v-4.3-3.4-10.8z"/><path d="m363.1 266.4h-5v-28.9h-6.9v-4.3h19.2v4.3h-7.3z"/><path d="m403.2 233.1v21.5 3.4c0 3.6 3 3.7 3 3.7h10.9v4.7h-11.8s-7.1 0-7.1-7.6v-4.3-21.4"/><path d="m421.1 256.2h4.4c0 .9.1 1.7.4 2.3s.6 1.2 1.2 1.8c1 1 2.2 1.5 3.7 1.5 1.7 0 3-.5 4-1.5s1.5-2.4 1.5-4.1c0-1.5-.4-2.6-1.1-3.5-.7-.8-2.3-1.6-4.6-2.3l-.6-.2c-2.8-.7-4.8-1.9-6.1-3.7-.5-.7-.9-1.5-1.2-2.4s-.5-1.8-.5-2.7c0-2.7.9-5 2.6-6.8s3.9-2.7 6.7-2.7c2.5 0 4.6.8 6.2 2.4.8.7 1.4 1.7 1.9 2.8l.3.8.3 1.1c0 .3.1.5.1.8v.9h-4.5c0-.6-.1-1.2-.4-1.8-.2-.5-.6-1-1-1.4-.8-.8-1.8-1.2-3.1-1.2s-2.3.5-3.2 1.4-1.3 2.1-1.3 3.5c0 .4.1.9.2 1.4s.4.9.7 1.2c.6.8 2.1 1.4 4.2 2l1 .2 1.3.4c2.2.8 3.8 2 5 3.6s1.7 3.4 1.7 5.6c0 3.2-.9 5.7-2.8 7.7s-4.3 3-7.3 3c-2.9 0-5.2-.9-7-2.8-1.8-1.8-2.7-4.3-2.7-7.3z"/><path d="m114.5 266.3v-33.2h6l10.9 25.6 11.3-25.6h6.1l.1 33.2h-4.9v-24.3l-10.5 24.4h-3.7l-10.5-24.2v24.2h-4.8z"/><path d="m155 233.1h4.8v21.8c0 6.3 4.4 7.2 6.5 7.2 2.6 0 6.9-1 7-7.1v-21.9h4.8v20.8c0 5.8-1.8 7.7-3.6 9.8s-4.7 2.8-8.3 2.8c-3.9 0-6.4-1.3-8.2-3.3s-3.1-3.8-3.1-9.3v-20.8z"/><path d="m195.9 266.3h-5v-28.9h-6.9v-4.3h19.2v4.3h-7.3z"/><path d="m212.6 266.4h-4.7v-33.2h4.7v13.9h14.5v-13.9h4.7v33.2h-4.7v-14.4h-14.5z"/><path d="m238.5 233.1h4.8v21.8c0 6.3 4.4 7.2 6.5 7.2 2.6 0 6.9-1 7-7.1v-21.9h4.8v20.8c0 5.8-1.8 7.7-3.6 9.8s-4.7 2.8-8.3 2.8c-3.9 0-6.4-1.3-8.2-3.3s-3.1-3.8-3.1-9.3v-20.8z"/><path d="m286 266.4h-4.7v-33.2h4.7v13.9h14.5v-13.9h4.7v33.2h-4.7v-14.4h-14.5z"/></g><path d="m31.2 202.3h493v15.8h-493z" fill="#fff"/><path d="m31.8 185.5v-148.7h22.9l54.7 129.3 54.4-129.3h22.9v148.7h-14.9v-131.4l-55.5 131.3h-14l-55.5-131.3v131.3h-15z" fill="#af9757"/><path d="m369.6 185.5v-148.7h22.9l54.7 129.3 54.4-129.3h22.9v148.7h-14.9v-131.4l-55.5 131.3h-14l-55.5-131.3v131.3h-15z" fill="#af9757"/><path d="m256.4 116.6h101c0 10.6-3.1 18.3-7.3 27.2s-10.2 17-18 24.3c-14.9 13.9-33.2 20.9-55 20.9-22.3 0-40.9-7.5-55.9-22.5s-22.5-33.6-22.5-55.9c0-10.4 2-20.3 6.1-29.7 4.1-9.3 10-17.7 17.9-25.1 7.8-7.4 16.4-12.9 25.7-16.4s19.5-5.3 30.7-5.3c14.9 0 28.3 3.5 40.2 10.5s22.5 18 29.8 31h-18.7c-7.2-8.9-16-16.5-24.3-20.8s-17.6-6.4-27.9-6.4c-17.6 0-32.6 6.1-44.9 18.4-12.3 12.2-18.5 27-18.5 44.2 0 18.3 6.1 33.5 18.3 45.7s27.3 18.3 45.3 18.3c14.1 0 26.8-4.4 38-13.1s18.5-18 21.9-31.9h-81.9z" fill="#af9757"/></svg>